<svg preserveAspectRatio="none" width="100%" height="100%" overflow="visible" style="display: block;" viewBox="0 0 83.8469 62.1895" fill="none" xmlns="http://www.w3.org/2000/svg">
<path id="Vector 23" d="M28.2219 21.2538C27.0926 20.9149 18.2965 20.3961 10.2489 22.7673C6.30179 23.9303 4.41288 27.1408 3.32998 28.6434C1.30981 31.4467 1.98373 42.101 2.79445 50.2469C3.00916 52.4043 4.39598 54.4488 5.64378 56.5545C6.6941 58.3271 8.59895 59.055 10.4965 59.511C14.4409 60.459 18.2055 58.5899 21.3425 56.7898C22.9586 55.8625 23.6453 54.0327 24.1084 53.2572C25.541 50.8577 34.1189 58.3328 43.4563 59.8661C48.565 60.7049 52.2096 59.7483 53.6964 58.8774C55.555 57.7887 56.5088 55.6879 57.0588 53.2828C58.5953 46.5633 56.0595 42.7263 54.646 40.6C52.8757 37.9371 61.2923 42.6162 65.9761 43.2306C69.8583 43.74 73.3173 42.7763 75.4616 41.5757C79.3015 39.4257 80.7462 35.3947 81.7391 31.0179C81.9917 29.9046 81.803 28.7276 81.1326 27.5125C78.3671 22.5001 73.0714 20.4601 68.8608 18.6886C65.6176 17.3241 62.5207 18.9212 62.4673 18.8249C60.9817 16.1423 67.4787 14.8166 68.5486 13.2653C69.4978 11.8891 69.3642 9.40897 69.0405 6.92773C68.2858 1.14448 52.3631 2.23037 45.2802 2.00331C41.1962 1.87239 38.3521 5.68096 35.278 8.30213C31.9927 11.1035 30.2356 15.6385 27.9133 18.962C27.3187 19.7871 26.7902 20.5464 26.2753 21.499C25.7603 22.4516 25.2748 23.5746 24.7747 24.7315" stroke="var(--stroke-0, #272727)" stroke-width="4" stroke-linecap="round"/>
</svg>
