<svg preserveAspectRatio="none" width="100%" height="100%" overflow="visible" style="display: block;" viewBox="0 0 193.399 101.599" fill="none" xmlns="http://www.w3.org/2000/svg">
<path id="Vector 22" d="M2.88848 2.00053C2.55257 2.84948 1.70888 10.2026 2.10245 15.7922C2.24515 17.8189 3.49884 19.6739 4.65802 21.4692C7.11441 25.2736 15.2919 26.9841 23.2933 28.3491C34.677 30.291 47.4802 20.6691 50.3416 18.3185C51.679 17.2199 46.8094 22.1494 45.6518 27.5457C44.1379 34.6026 46.534 45.9422 49.2882 57.2052C50.6263 62.677 52.4836 64.9565 54.4061 67.2302C58.3429 71.8861 66.1153 73.2861 88.5364 74.7174C97.964 75.3192 104.803 71.0153 109.711 66.9557C118.476 59.7054 119.017 55.7745 119.975 54.6712C123.267 50.8771 121.937 66.9953 125.005 71.8091C129.842 79.3979 137.3 85.0462 144.783 89.3572C155.991 95.8138 164.895 98.0834 167.822 98.7682C177.842 99.8581 186.36 99.7845 188.149 99.0745C189.004 98.6609 189.75 98.1393 191.399 97.0359" stroke="var(--stroke-0, #272727)" stroke-width="4" stroke-linecap="round"/>
</svg>
