<svg preserveAspectRatio="none" width="100%" height="100%" overflow="visible" style="display: block;" viewBox="0 0 205.001 264.892" fill="none" xmlns="http://www.w3.org/2000/svg">
<g id="Group 5">
<path id="Vector 3" d="M3.10331 109.867V262.161" stroke="var(--stroke-0, black)" stroke-width="4" stroke-linecap="round"/>
<path id="Vector 4" d="M3.64677 108.085H200.647" stroke="var(--stroke-0, black)" stroke-width="4" stroke-linecap="round"/>
<path id="Vector 5" d="M202.647 110.085V262.085" stroke="var(--stroke-0, black)" stroke-width="4" stroke-linecap="round"/>
<path id="Vector 6" d="M2.00004 109.156C2.59478 108.653 5.84586 106.692 16.9176 99.3078C20.6637 96.8092 24.2242 93.4869 34.6713 82.6049C45.1183 71.7229 62.1387 53.2191 72.8271 41.8598C87.0884 26.7033 91.8931 22.5058 93.329 21.0132C97.569 16.6059 100.176 14.0715 101.344 13.5596C102.495 13.0554 103.889 15.0056 109.333 20.244C113.996 24.7313 123.427 32.3812 136.676 43.7679C149.925 55.1546 166.94 69.9055 176.736 78.6272C192.06 92.2695 194.115 96.1736 195.98 98.81C197.567 101.199 199.955 104.264 201.734 107.225C201.992 107.853 202.132 108.442 203 110.483" stroke="var(--stroke-0, black)" stroke-width="4" stroke-linecap="round"/>
<path id="Vector 7" d="M85.062 262.891C85.062 262.914 85 257.544 85.062 252.427C85.124 247.311 85.248 237.056 85.434 225.799C85.6201 214.541 85.8644 202.593 86.2983 196.37C86.7323 190.147 87.3486 190.011 88.0248 189.973C94.8315 189.584 109.335 192.003 114.564 190.596C116.737 190.012 118.448 189.315 119.41 189.519C120.445 189.738 119.538 192.467 119.119 201.108C118.759 208.506 118.88 222.048 118.954 229.643C119.555 241.179 119.934 246.258 120.28 251.612C120.397 254.744 120.397 258.721 120.216 262.891" stroke="var(--stroke-0, black)" stroke-width="4" stroke-linecap="round"/>
<path id="Vector 21" d="M129.67 36.9489C129.626 36.9489 129.581 26.4615 129.855 10.7036C129.947 5.42547 130.767 5.69702 131.358 5.94168C133.794 6.94987 137.247 6.73184 152.195 3.18327C155.896 2.30459 157.068 1.96363 157.953 2.00293C160.422 2.11264 157.92 13.7885 158.646 28.8337C159.688 50.4433 161.357 53.2327 161.7 55.9004C162.166 59.5887 162.735 62.3812 162.916 63.5969C162.993 64.2534 163.037 64.9903 163.082 65.7495" stroke="var(--stroke-0, #272727)" stroke-width="4" stroke-linecap="round"/>
</g>
</svg>
