<svg preserveAspectRatio="none" width="100%" height="100%" overflow="visible" style="display: block;" viewBox="0 0 49.316 75.8355" fill="none" xmlns="http://www.w3.org/2000/svg">
<g id="Group 4">
<path id="Vector 19" d="M36.3319 73.8355C36.3153 73.8355 36.2987 73.8355 36.2818 70.3542C36.265 66.873 36.2484 59.9104 35.6576 52.1175C35.0669 44.3246 33.9026 35.9122 32.0018 27.4154" stroke="var(--stroke-0, black)" stroke-width="4" stroke-linecap="round"/>
<path id="Vector 20" d="M32.0811 27.7333C32.6203 27.4896 36.9602 23.9196 41.8163 18.3361C47.1003 12.2604 47.8468 3.00195 47.0413 2.43286C45.645 1.44639 43.8178 2.39758 42.9371 2.79167C41.064 3.62981 40.2161 5.41187 38.4356 7.85129C36.8968 9.95957 33.8367 14.8051 31.1338 18.3562C29.9835 19.8675 29.7126 21.7268 29.5061 23.5833C29.3698 24.8089 29.1041 25.8957 28.8269 26.4325C28.7108 26.6572 28.2262 26.3827 28.0187 26.044C27.5658 25.3044 27.6184 24.1649 27.2324 23.1979C26.4368 21.2048 21.2307 19.9311 15.704 19.0169C8.53477 17.8309 5.12394 20.1122 2.90185 21.3398C2.13074 21.7658 2.03475 22.85 2.00099 23.7659C1.98436 24.2172 2.18896 24.6358 2.47375 24.9804C3.7031 26.4678 6.01028 26.404 10.9189 26.4247C16.1517 26.4468 21.5373 29.8496 24.7232 30.9705C27.9859 32.1185 31.3403 31.7018 32.1467 31.3117C32.7443 30.6961 33.155 29.7617 33.3976 28.6805C33.4801 28.1594 33.4801 27.6946 33.4249 27.1604" stroke="var(--stroke-0, black)" stroke-width="4" stroke-linecap="round"/>
</g>
</svg>
