<svg preserveAspectRatio="none" width="100%" height="100%" overflow="visible" style="display: block;" viewBox="0 0 40.9993 71" fill="none" xmlns="http://www.w3.org/2000/svg">
<g id="Group 3">
<path id="Vector 13" d="M21.9996 69C21.9996 69 21.9996 69 21.9996 62.0768C21.9996 55.1536 21.9996 41.3072 21.9996 27" stroke="var(--stroke-0, black)" stroke-width="4" stroke-linecap="round"/>
<path id="Vector 14" d="M21.9934 27.015C22.6142 26.9989 24.967 26.3603 28.2877 23.7403C33.0134 20.0116 36.0982 15.7402 37.3286 13.4709C39.54 9.39235 39.1164 4.62591 38.53 2.4015C38.3601 1.7568 37.2046 2.0527 36.4765 2.17501C35.6707 2.31038 32.8786 5.20897 28.7922 9.482C24.9848 13.4632 24.1633 16.6203 23.7812 18.836C23.2877 21.6972 22.3534 24.7278 21.8087 27.3025C21.6907 27.8603 21.6222 28.2099 21.4702 28.2581C20.5002 28.5659 20.596 25.9622 19.8058 24.5349C18.2986 21.8125 14.9063 18.969 13.2518 17.6014C10.837 15.6053 9.04828 14.4272 7.53693 13.8237C5.46716 12.9971 3.33966 13.7418 2.81132 14.1116C1.68505 14.9 2.01515 16.4276 2.15317 17.1239C2.45152 18.629 6.85755 20.2958 10.7405 23.3748C15.4176 27.0833 17.3532 27.9641 19.2449 29.2075C19.6614 29.5221 20.0513 29.8652 20.3965 30.1712C20.7416 30.4773 21.0301 30.736 20.7378 31" stroke="var(--stroke-0, black)" stroke-width="4" stroke-linecap="round"/>
</g>
</svg>
