<svg preserveAspectRatio="none" width="100%" height="100%" overflow="visible" style="display: block;" viewBox="0 0 123 135" fill="none" xmlns="http://www.w3.org/2000/svg">
<path id="Vector 25" d="M2 133C2.14372 133 4.01772 132.876 13.9289 131.346C22.0627 130.09 36.408 127.255 45.6286 125.188C54.8493 123.121 58.4873 121.753 61.7476 120.382C67.8365 117.824 73.1566 115.336 78.7906 112.662C81.9887 111.145 85.5364 108.575 87.9049 106.889C90.2734 105.203 91.2687 104.293 94.0654 100.683C96.8621 97.0731 101.43 90.7906 105.397 84.273C109.365 77.7554 112.594 71.1931 114.736 65.9714C116.878 60.7496 117.836 57.0673 118.692 52.0622C119.549 47.0572 120.275 40.841 120.65 34.2856C121.025 27.7302 121.027 21.024 120.977 17.37C120.927 13.7159 120.824 13.3173 120.77 11.4377C120.717 9.55803 120.717 6.20952 120.48 2.00006" stroke="var(--stroke-0, #272727)" stroke-width="4" stroke-linecap="round"/>
</svg>
